<svg width="274" height="86" viewBox="0 0 274 86" fill="none" xmlns="http://www.w3.org/2000/svg">
<path fill-rule="evenodd" clip-rule="evenodd" d="M50.3529 2H224.083V20.1913H226.083V2V0H224.083H50.3529H48.3529V2V20.1913H50.3529V2ZM50.3529 65.0609H48.3529V84V86H50.3529H224.083H226.083V84V65.0609H224.083V84H50.3529V65.0609Z" fill="white"/>
<path d="M31.9015 22.26H43.0115V23.58L39.1615 24.845V59H36.1365L10.9465 28.805V56.305L15.5115 57.68V59H4.18145V57.68L8.58145 56.305V24.075L3.79645 23.525V22.26H12.8165L36.1365 50.475V24.845L31.9015 23.58V22.26ZM53.2578 53.06C53.2578 55.4433 54.2294 56.855 56.1728 57.295C56.6128 57.405 57.0344 57.46 57.4378 57.46C58.8311 57.46 60.2794 56.8733 61.7828 55.7C63.2861 54.49 64.0744 52.8767 64.1478 50.86V46.13C56.8878 46.2033 53.2578 48.5133 53.2578 53.06ZM55.4578 59.66C53.3678 59.66 51.5711 59.0917 50.0678 57.955C48.6011 56.7817 47.8678 55.15 47.8678 53.06C47.9044 50.2367 49.3161 48.1283 52.1028 46.735C54.9261 45.3417 58.9411 44.645 64.1478 44.645V39.915C64.1478 35.2583 62.4611 32.93 59.0878 32.93C57.3644 32.93 55.9711 33.645 54.9078 35.075C54.1744 36.065 53.8078 37.2933 53.8078 38.76C53.8078 39.3833 53.8811 40.0433 54.0278 40.74C53.5144 41.1067 52.9828 41.29 52.4328 41.29C51.9194 41.29 51.4061 41.18 50.8928 40.96C49.7194 40.52 49.1328 39.6767 49.1328 38.43C49.1328 36.7433 49.7378 35.35 50.9478 34.25C52.9278 32.4533 55.6594 31.555 59.1428 31.555C62.6261 31.555 65.1561 32.3067 66.7328 33.81C68.3094 35.2767 69.0978 37.605 69.0978 40.795V57.46L73.7178 57.68L73.7728 58.945L64.5878 59.605L64.0928 54.71C62.4061 58.01 59.5278 59.66 55.4578 59.66ZM85.691 40.685V55.975C87.451 57.3317 89.6327 58.01 92.236 58.01C93.6294 58.01 94.821 57.7167 95.811 57.13C96.8377 56.5433 97.626 55.81 98.176 54.93C98.7627 54.05 99.2027 52.9317 99.496 51.575C100.009 49.4117 100.266 46.68 100.266 43.38C100.266 40.08 99.6977 37.5683 98.561 35.845C97.4244 34.1217 95.8294 33.26 93.776 33.26C91.7227 33.26 89.8527 34.14 88.166 35.9C86.516 37.6233 85.691 39.2183 85.691 40.685ZM95.591 31.555C98.6344 31.555 101.183 32.6183 103.236 34.745C105.289 36.835 106.316 40.1717 106.316 44.755C106.316 49.3017 105.088 52.9317 102.631 55.645C100.174 58.3217 96.6727 59.66 92.126 59.66C89.7427 59.66 87.5977 59.1283 85.691 58.065V71.155L89.541 71.43V72.75H76.891V71.43L80.301 71.155V33.92L75.571 33.7V32.435L85.471 31.83L85.306 36.615H85.801C86.791 35.0017 88.166 33.755 89.926 32.875C91.686 31.995 93.5744 31.555 95.591 31.555ZM139.931 45.58C139.931 49.65 138.703 53.005 136.246 55.645C133.79 58.285 130.435 59.605 126.181 59.605C121.965 59.605 118.628 58.285 116.171 55.645C113.715 53.005 112.486 49.65 112.486 45.58C112.486 41.51 113.715 38.155 116.171 35.515C118.628 32.875 121.965 31.555 126.181 31.555C130.435 31.555 133.79 32.875 136.246 35.515C138.703 38.155 139.931 41.51 139.931 45.58ZM118.481 45.58C118.481 54.05 121.048 58.285 126.181 58.285C131.351 58.285 133.936 54.05 133.936 45.58C133.936 41.4733 133.35 38.3383 132.176 36.175C131.003 34.0117 129.023 32.93 126.236 32.93C123.45 32.93 121.451 34.0117 120.241 36.175C119.068 38.3383 118.481 41.4733 118.481 45.58ZM157.634 59H144.984V57.68L148.614 57.405V19.51L143.719 19.29V18.025L154.004 16.87V57.405L157.634 57.68V59ZM171.779 23.195C171.779 24.075 171.467 24.845 170.844 25.505C170.221 26.1283 169.432 26.44 168.479 26.44C167.562 26.44 166.792 26.1283 166.169 25.505C165.546 24.8817 165.234 24.1117 165.234 23.195C165.234 22.2417 165.546 21.4533 166.169 20.83C166.792 20.17 167.562 19.84 168.479 19.84C169.396 19.84 170.166 20.17 170.789 20.83C171.449 21.49 171.779 22.2783 171.779 23.195ZM162.429 59V57.68L166.059 57.405V34.03L161.219 33.865V32.6L171.449 31.885V57.405L175.079 57.68V59H162.429ZM180.466 30.345V22.26L210.991 22.15V23.855L187.231 56.195L207.526 56.305L209.396 50.255H210.826V58.285L179.861 58.395V56.855L203.841 24.35L183.766 24.24L181.896 30.345H180.466ZM217.165 57.735L234.545 33.92L220.685 34.085L218.815 39.915L217.385 39.86L217.44 32.105L240.595 31.995V33.315L223.38 57.13L236.8 56.965L239 51.19H240.43L240.045 58.945L217.165 59.055V57.735ZM251.685 53.06C251.685 55.4433 252.657 56.855 254.6 57.295C255.04 57.405 255.462 57.46 255.865 57.46C257.259 57.46 258.707 56.8733 260.21 55.7C261.714 54.49 262.502 52.8767 262.575 50.86V46.13C255.315 46.2033 251.685 48.5133 251.685 53.06ZM253.885 59.66C251.795 59.66 249.999 59.0917 248.495 57.955C247.029 56.7817 246.295 55.15 246.295 53.06C246.332 50.2367 247.744 48.1283 250.53 46.735C253.354 45.3417 257.369 44.645 262.575 44.645V39.915C262.575 35.2583 260.889 32.93 257.515 32.93C255.792 32.93 254.399 33.645 253.335 35.075C252.602 36.065 252.235 37.2933 252.235 38.76C252.235 39.3833 252.309 40.0433 252.455 40.74C251.942 41.1067 251.41 41.29 250.86 41.29C250.347 41.29 249.834 41.18 249.32 40.96C248.147 40.52 247.56 39.6767 247.56 38.43C247.56 36.7433 248.165 35.35 249.375 34.25C251.355 32.4533 254.087 31.555 257.57 31.555C261.054 31.555 263.584 32.3067 265.16 33.81C266.737 35.2767 267.525 37.605 267.525 40.795V57.46L272.145 57.68L272.2 58.945L263.015 59.605L262.52 54.71C260.834 58.01 257.955 59.66 253.885 59.66Z" fill="white"/>
</svg>
