<svg xmlns="http://www.w3.org/2000/svg" xmlns:xlink="http://www.w3.org/1999/xlink" width="500" zoomAndPan="magnify" viewBox="0 0 375 374.999991" height="500" preserveAspectRatio="xMidYMid meet" version="1.0"><defs><clipPath id="23c5e2a23b"><path d="M 71.660156 54 L 303 54 L 303 145 L 71.660156 145 Z M 71.660156 54 " clip-rule="nonzero"/></clipPath><clipPath id="8e63b42895"><path d="M 144 239 L 231 239 L 231 331.910156 L 144 331.910156 Z M 144 239 " clip-rule="nonzero"/></clipPath><clipPath id="be13381c5d"><path d="M 71.660156 158.027344 L 319 158.027344 L 319 220.457031 L 71.660156 220.457031 Z M 71.660156 158.027344 " clip-rule="nonzero"/></clipPath><clipPath id="87208aad2a"><path d="M 111 99 L 264 99 L 264 254 L 111 254 Z M 111 99 " clip-rule="nonzero"/></clipPath><clipPath id="86ae7937a6"><path d="M 187.972656 99.1875 L 263.660156 163.003906 L 186.792969 254.171875 L 111.105469 190.359375 Z M 187.972656 99.1875 " clip-rule="nonzero"/></clipPath><clipPath id="0630d9dad2"><path d="M 187.972656 99.1875 L 263.660156 163.003906 L 186.792969 254.171875 L 111.105469 190.359375 Z M 187.972656 99.1875 " clip-rule="nonzero"/></clipPath><clipPath id="9e79313653"><path d="M 107.15625 85 L 187.40625 85 L 187.40625 117.625 L 107.15625 117.625 Z M 107.15625 85 " clip-rule="nonzero"/></clipPath></defs><rect x="-37.5" width="450" fill="#ffffff" y="-37.499999" height="449.999989" fill-opacity="1"/><rect x="-37.5" width="450" fill="#526e05" y="-37.499999" height="449.999989" fill-opacity="1"/><g clip-path="url(#23c5e2a23b)"><path fill="#ffffff" d="M 92.117188 88.875 L 117.808594 144.953125 L 101.054688 144.953125 C 91.417969 123.894531 81.695312 102.695312 71.894531 81.359375 C 86.851562 73.910156 102.390625 67.976562 118.507812 63.5625 C 134.625 59.148438 151.015625 56.335938 167.679688 55.125 C 179.289062 54.230469 190.90625 54.117188 202.53125 54.792969 C 214.15625 55.464844 225.683594 56.917969 237.109375 59.148438 C 248.539062 61.378906 259.765625 64.367188 270.789062 68.113281 C 281.8125 71.859375 292.535156 76.328125 302.957031 81.523438 L 273.796875 144.925781 L 257.046875 144.925781 C 265.652344 126.179688 274.125 107.789062 282.734375 89.066406 C 270.253906 83.675781 257.402344 79.390625 244.183594 76.214844 C 230.964844 73.039062 217.570312 71.019531 204 70.15625 C 194.472656 69.484375 184.9375 69.378906 175.394531 69.832031 C 165.851562 70.289062 156.371094 71.304688 146.949219 72.882812 C 137.527344 74.457031 128.230469 76.585938 119.0625 79.257812 C 109.890625 81.933594 100.910156 85.140625 92.117188 88.875 Z M 92.117188 88.875 " fill-opacity="1" fill-rule="nonzero"/></g><g clip-path="url(#8e63b42895)"><path fill="#ffffff" d="M 187.03125 332.292969 C 172.929688 301.574219 158.800781 270.757812 144.644531 239.839844 C 145.230469 239.703125 145.820312 239.613281 146.417969 239.566406 C 150.710938 239.566406 155 239.566406 159.265625 239.566406 C 159.597656 239.539062 159.925781 239.570312 160.25 239.660156 C 160.570312 239.75 160.867188 239.890625 161.144531 240.082031 C 161.417969 240.273438 161.652344 240.503906 161.84375 240.777344 C 162.039062 241.050781 162.179688 241.347656 162.269531 241.667969 C 170.449219 259.5625 178.648438 277.433594 186.867188 295.289062 C 187.027344 295.582031 187.21875 295.855469 187.441406 296.109375 C 192.140625 286.707031 196.183594 277.167969 200.53125 267.851562 C 204.875 258.53125 209.191406 249.019531 213.484375 239.703125 L 230.398438 239.703125 L 187.742188 332.183594 Z M 187.03125 332.292969 " fill-opacity="1" fill-rule="nonzero"/></g><path fill="#ffffff" d="M 191.15625 166.460938 L 174.757812 196.140625 C 177.328125 196.488281 179.90625 196.578125 182.492188 196.414062 C 185.035156 196.414062 187.578125 196.414062 190.390625 196.414062 C 190.746094 198.882812 190.746094 201.351562 190.390625 203.820312 C 190.390625 204.667969 189.160156 205.324219 188.585938 206.144531 C 188.148438 206.746094 187.640625 207.28125 187.058594 207.746094 C 186.472656 208.210938 185.839844 208.585938 185.152344 208.878906 C 184.464844 209.171875 183.753906 209.363281 183.015625 209.460938 C 182.277344 209.558594 181.535156 209.554688 180.800781 209.449219 C 173.695312 209.203125 166.589844 209.449219 159.457031 209.449219 L 156.230469 209.449219 C 161.695312 199.066406 167.433594 189.308594 172.875 178.921875 L 158.035156 178.921875 C 157.777344 176.4375 157.777344 173.949219 158.035156 171.464844 C 158.035156 171.082031 158.445312 170.671875 158.773438 170.371094 C 159.816406 169.242188 160.917969 168.175781 162.078125 167.171875 C 162.695312 166.628906 163.417969 166.328125 164.238281 166.269531 C 172.875 166.269531 181.535156 166.269531 190.199219 166.269531 C 190.523438 166.308594 190.84375 166.375 191.15625 166.460938 Z M 164.484375 172.417969 L 180.472656 172.417969 C 178.886719 175.316406 177.546875 177.886719 176.179688 180.207031 L 172.082031 187.613281 L 167.816406 195.265625 C 166.480469 197.699219 165.085938 200.128906 163.773438 202.699219 C 172.152344 203.1875 180.523438 203.097656 188.886719 202.425781 L 188.886719 198.082031 C 183.421875 197.890625 177.957031 198.082031 172.082031 197.917969 C 174.210938 194.144531 176.070312 190.8125 177.902344 187.503906 C 179.734375 184.199219 181.589844 181 183.367188 177.722656 C 185.144531 174.441406 187.195312 171.246094 188.832031 167.636719 L 164.484375 167.636719 Z M 164.484375 172.417969 " fill-opacity="1" fill-rule="nonzero"/><path fill="#ffffff" d="M 234.5 196.523438 C 234.5 199.257812 234.5 201.523438 234.5 203.875 C 234.382812 204.417969 234.121094 204.871094 233.707031 205.242188 C 230.019531 209.503906 229.992188 209.503906 224.195312 209.503906 L 201.515625 209.503906 C 201.199219 209.472656 200.886719 209.40625 200.585938 209.3125 C 201.453125 207.257812 202.472656 205.28125 203.644531 203.382812 C 204.710938 201.359375 205.859375 199.394531 206.953125 197.398438 L 210.257812 191.414062 L 213.566406 185.457031 C 214.632812 183.460938 215.699219 181.464844 217.035156 179.058594 C 211.898438 178.839844 207.144531 179.058594 202.035156 178.894531 C 202.035156 176.382812 202.035156 174.03125 202.035156 171.707031 C 202.160156 171.171875 202.425781 170.71875 202.824219 170.34375 C 206.351562 166.242188 206.351562 166.242188 211.871094 166.242188 L 235.320312 166.242188 C 229.855469 176.546875 224.195312 186.191406 218.675781 196.550781 Z M 216.082031 198.082031 C 218.238281 194.199219 220.070312 190.894531 221.929688 187.585938 C 223.785156 184.28125 225.5625 181.054688 227.394531 177.804688 C 229.226562 174.550781 231.136719 171.246094 232.859375 167.664062 L 208.539062 167.664062 L 208.539062 172.417969 C 211.269531 172.417969 214.003906 172.417969 216.488281 172.417969 C 219.175781 172.277344 221.855469 172.378906 224.523438 172.71875 L 221.109375 178.921875 L 217.800781 184.910156 C 216.679688 186.875 215.589844 188.871094 214.46875 190.867188 C 213.347656 192.859375 212.226562 194.828125 211.160156 196.851562 C 209.929688 198.730469 208.925781 200.726562 208.15625 202.835938 C 216.488281 203.320312 224.8125 203.21875 233.132812 202.535156 L 233.132812 198.082031 Z M 216.082031 198.082031 " fill-opacity="1" fill-rule="nonzero"/><path fill="#ffffff" d="M 290.796875 204.09375 C 290.523438 204.53125 290.523438 204.722656 290.523438 204.722656 C 286.042969 209.722656 285.058594 210.1875 278.253906 209.476562 C 277.464844 209.34375 276.835938 208.953125 276.367188 208.300781 C 275.523438 207.082031 274.773438 205.808594 274.125 204.476562 C 273.921875 204.003906 273.601562 203.636719 273.15625 203.378906 C 272.710938 203.121094 272.230469 203.023438 271.722656 203.082031 C 266.992188 203.082031 262.265625 203.082031 257.511719 203.082031 C 257.109375 203.066406 256.726562 203.144531 256.363281 203.320312 C 256 203.492188 255.699219 203.742188 255.460938 204.066406 C 250.351562 209.859375 250.1875 209.914062 242.644531 209.53125 C 242.296875 209.472656 241.960938 209.378906 241.632812 209.257812 C 242.097656 208.300781 242.507812 207.425781 242.972656 206.527344 C 249.339844 194.855469 255.789062 183.214844 262.101562 171.515625 C 263.917969 168.671875 266.101562 166.148438 268.660156 163.949219 C 276.175781 177.394531 283.472656 190.8125 290.796875 204.09375 Z M 288.527344 202.945312 L 268.660156 166.816406 L 249.039062 202.753906 C 254.339844 203.4375 254.339844 203.4375 256.636719 199.257812 C 256.800781 198.929688 257.019531 198.628906 257.15625 198.273438 C 257.246094 198.015625 257.378906 197.785156 257.550781 197.574219 C 257.722656 197.363281 257.921875 197.1875 258.152344 197.042969 C 258.382812 196.898438 258.628906 196.796875 258.894531 196.734375 C 259.160156 196.675781 259.425781 196.660156 259.695312 196.6875 C 265.707031 196.6875 271.722656 196.6875 277.734375 196.6875 C 278.289062 196.675781 278.800781 196.816406 279.265625 197.117188 C 279.734375 197.414062 280.082031 197.816406 280.300781 198.328125 C 281.121094 199.910156 282.050781 201.441406 282.898438 202.945312 Z M 288.527344 202.945312 " fill-opacity="1" fill-rule="nonzero"/><path fill="#ffffff" d="M 97.144531 199.476562 C 97.144531 200.539062 97.144531 201.359375 97.144531 202.207031 C 97.21875 202.9375 97.117188 203.640625 96.835938 204.320312 C 96.554688 205 96.128906 205.570312 95.5625 206.035156 C 91.460938 209.996094 91.023438 210.1875 84.4375 209.203125 C 84.324219 208.453125 84.25 207.695312 84.21875 206.933594 C 84.21875 195.730469 84.21875 184.527344 84.21875 173.320312 C 84.214844 171.949219 84.660156 170.75 85.558594 169.714844 C 86.035156 169.050781 86.59375 168.46875 87.230469 167.960938 C 87.871094 167.453125 88.566406 167.042969 89.320312 166.730469 C 90.070312 166.414062 90.851562 166.210938 91.664062 166.113281 C 92.472656 166.015625 93.28125 166.03125 94.085938 166.160156 C 97.144531 166.460938 100.261719 166.160156 103.351562 166.160156 C 104.011719 166.136719 104.675781 166.160156 105.332031 166.238281 C 105.992188 166.3125 106.644531 166.433594 107.285156 166.605469 C 107.925781 166.78125 108.546875 167 109.15625 167.265625 C 109.765625 167.53125 110.347656 167.839844 110.910156 168.195312 C 111.472656 168.550781 112.003906 168.941406 112.503906 169.378906 C 113.007812 169.8125 113.472656 170.28125 113.90625 170.785156 C 114.335938 171.289062 114.730469 171.820312 115.082031 172.382812 C 115.433594 172.945312 115.738281 173.53125 116.003906 174.140625 C 116.605469 175.308594 117.019531 176.535156 117.253906 177.824219 C 117.488281 179.117188 117.527344 180.410156 117.375 181.714844 C 117.222656 183.015625 116.882812 184.269531 116.355469 185.46875 C 115.828125 186.671875 115.136719 187.765625 114.28125 188.761719 C 112.050781 191.421875 109.628906 193.890625 107.011719 196.167969 C 105.957031 197.109375 104.777344 197.84375 103.46875 198.375 C 102.160156 198.902344 100.796875 199.199219 99.386719 199.257812 Z M 90.75 167.5 L 90.75 202.78125 L 95.917969 202.78125 L 95.917969 192.859375 C 98.867188 192.859375 101.382812 192.996094 104.113281 192.859375 C 104.945312 192.839844 105.765625 192.738281 106.578125 192.554688 C 107.386719 192.371094 108.171875 192.109375 108.933594 191.773438 C 109.691406 191.433594 110.410156 191.027344 111.089844 190.546875 C 111.769531 190.066406 112.394531 189.527344 112.964844 188.921875 C 113.539062 188.320312 114.046875 187.667969 114.488281 186.964844 C 114.933594 186.261719 115.304688 185.523438 115.601562 184.746094 C 115.902344 183.972656 116.121094 183.175781 116.261719 182.355469 C 116.402344 181.535156 116.460938 180.710938 116.441406 179.878906 C 116.417969 179.050781 116.316406 178.230469 116.132812 177.417969 C 115.949219 176.605469 115.691406 175.820312 115.351562 175.0625 C 115.015625 174.304688 114.605469 173.585938 114.125 172.90625 C 113.644531 172.226562 113.105469 171.601562 112.503906 171.027344 C 111.898438 170.457031 111.246094 169.949219 110.542969 169.503906 C 109.839844 169.0625 109.101562 168.691406 108.328125 168.394531 C 107.550781 168.09375 106.753906 167.875 105.933594 167.734375 C 105.113281 167.59375 104.289062 167.535156 103.460938 167.554688 C 100.453125 167.554688 97.445312 167.554688 94.441406 167.554688 Z M 90.75 167.5 " fill-opacity="1" fill-rule="nonzero"/><path fill="#ffffff" d="M 130.1875 209.367188 L 130.1875 206.117188 C 130.1875 195.457031 130.1875 184.800781 130.1875 174.167969 C 130.164062 173.238281 130.324219 172.339844 130.671875 171.476562 C 131.019531 170.613281 131.523438 169.851562 132.179688 169.195312 C 132.589844 168.65625 133.058594 168.179688 133.59375 167.765625 C 134.128906 167.351562 134.710938 167.015625 135.335938 166.761719 C 135.957031 166.503906 136.605469 166.332031 137.277344 166.25 C 137.949219 166.167969 138.617188 166.171875 139.285156 166.269531 C 140.5 166.351562 141.710938 166.351562 142.921875 166.269531 C 142.921875 167.226562 143.113281 167.9375 143.113281 168.648438 C 143.113281 179.824219 143.113281 191.03125 143.113281 202.207031 C 143.152344 202.933594 143.03125 203.628906 142.753906 204.300781 C 142.476562 204.96875 142.066406 205.546875 141.527344 206.035156 C 137.867188 209.585938 137.894531 209.613281 132.753906 209.558594 C 132.015625 209.503906 131.363281 209.421875 130.1875 209.367188 Z M 136.746094 167.664062 L 136.746094 202.78125 L 141.609375 202.78125 L 141.609375 167.664062 Z M 136.746094 167.664062 " fill-opacity="1" fill-rule="nonzero"/><path fill="#ffffff" d="M 164.484375 172.527344 L 164.484375 167.636719 L 188.777344 167.636719 C 187.195312 171.246094 185.144531 174.414062 183.3125 177.722656 C 181.480469 181.027344 179.679688 184.226562 177.847656 187.503906 C 176.015625 190.785156 174.15625 194.144531 172.027344 197.917969 C 177.902344 198.164062 183.285156 197.917969 188.832031 198.082031 L 188.832031 202.535156 C 180.46875 203.207031 172.097656 203.296875 163.71875 202.808594 C 165.113281 200.238281 166.453125 197.808594 167.761719 195.375 L 172.027344 187.722656 L 176.125 180.316406 C 177.492188 177.886719 178.859375 175.425781 180.417969 172.527344 Z M 164.484375 172.527344 " fill-opacity="1" fill-rule="nonzero"/><path fill="#ffffff" d="M 216.082031 198.082031 L 233.132812 198.082031 L 233.132812 202.535156 C 224.8125 203.21875 216.488281 203.320312 208.15625 202.835938 C 208.925781 200.726562 209.929688 198.730469 211.160156 196.851562 C 212.226562 194.828125 213.375 192.859375 214.46875 190.867188 C 215.5625 188.871094 216.679688 186.875 217.800781 184.910156 L 221.109375 178.921875 L 224.523438 172.71875 C 221.855469 172.378906 219.175781 172.277344 216.488281 172.417969 C 213.757812 172.417969 211.269531 172.417969 208.539062 172.417969 L 208.539062 167.664062 L 233.132812 167.664062 C 231.328125 171.246094 229.390625 174.496094 227.667969 177.804688 C 225.945312 181.109375 224.003906 184.308594 222.203125 187.585938 C 220.398438 190.867188 218.238281 194.199219 216.082031 198.082031 Z M 216.082031 198.082031 " fill-opacity="1" fill-rule="nonzero"/><path fill="#ffffff" d="M 288.527344 202.945312 L 282.898438 202.945312 C 282.050781 201.441406 281.121094 199.910156 280.300781 198.328125 C 280.082031 197.816406 279.734375 197.414062 279.265625 197.117188 C 278.800781 196.816406 278.289062 196.675781 277.734375 196.6875 C 271.722656 196.6875 265.707031 196.6875 259.695312 196.6875 C 259.425781 196.660156 259.160156 196.675781 258.894531 196.734375 C 258.628906 196.796875 258.382812 196.898438 258.152344 197.042969 C 257.921875 197.1875 257.722656 197.363281 257.550781 197.574219 C 257.378906 197.785156 257.246094 198.015625 257.15625 198.273438 C 257.019531 198.628906 256.800781 198.929688 256.636719 199.257812 C 254.339844 203.4375 254.339844 203.4375 249.039062 202.753906 L 268.660156 166.816406 Z M 261.007812 191.304688 C 266.128906 191.886719 271.238281 191.804688 276.339844 191.058594 L 268.660156 177.175781 C 265.925781 182.121094 263.578125 186.546875 261.007812 191.304688 Z M 261.007812 191.304688 " fill-opacity="1" fill-rule="nonzero"/><path fill="#ffffff" d="M 90.75 167.5 L 94.441406 167.5 C 97.445312 167.5 100.453125 167.5 103.460938 167.5 C 104.289062 167.480469 105.113281 167.539062 105.933594 167.679688 C 106.753906 167.820312 107.550781 168.039062 108.328125 168.339844 C 109.101562 168.636719 109.839844 169.007812 110.542969 169.449219 C 111.246094 169.894531 111.898438 170.402344 112.503906 170.972656 C 113.105469 171.546875 113.644531 172.171875 114.125 172.851562 C 114.605469 173.53125 115.015625 174.25 115.351562 175.007812 C 115.691406 175.769531 115.949219 176.550781 116.132812 177.363281 C 116.316406 178.175781 116.417969 178.996094 116.441406 179.824219 C 116.460938 180.65625 116.402344 181.480469 116.261719 182.300781 C 116.121094 183.121094 115.902344 183.917969 115.601562 184.691406 C 115.304688 185.46875 114.933594 186.207031 114.488281 186.910156 C 114.046875 187.613281 113.539062 188.265625 112.964844 188.867188 C 112.394531 189.472656 111.769531 190.011719 111.089844 190.492188 C 110.410156 190.972656 109.691406 191.378906 108.933594 191.71875 C 108.171875 192.054688 107.386719 192.316406 106.578125 192.5 C 105.765625 192.683594 104.945312 192.785156 104.113281 192.804688 C 101.382812 192.96875 98.867188 192.804688 95.917969 192.804688 L 95.917969 202.726562 L 90.75 202.726562 Z M 95.835938 187.804688 C 98.839844 187.804688 101.300781 187.804688 104.03125 187.804688 C 104.5 187.78125 104.960938 187.714844 105.417969 187.605469 C 105.871094 187.496094 106.3125 187.347656 106.738281 187.15625 C 107.167969 186.96875 107.574219 186.742188 107.960938 186.476562 C 108.34375 186.210938 108.703125 185.914062 109.035156 185.585938 C 109.367188 185.253906 109.664062 184.898438 109.929688 184.511719 C 110.195312 184.128906 110.425781 183.722656 110.617188 183.292969 C 110.808594 182.867188 110.960938 182.425781 111.070312 181.972656 C 111.179688 181.519531 111.25 181.058594 111.273438 180.589844 C 111.304688 180.144531 111.296875 179.703125 111.246094 179.257812 C 111.199219 178.816406 111.109375 178.382812 110.984375 177.957031 C 110.855469 177.527344 110.691406 177.117188 110.488281 176.71875 C 110.289062 176.320312 110.050781 175.945312 109.785156 175.589844 C 109.515625 175.234375 109.214844 174.90625 108.886719 174.605469 C 108.558594 174.304688 108.207031 174.035156 107.832031 173.796875 C 107.453125 173.558594 107.058594 173.355469 106.644531 173.1875 C 106.234375 173.023438 105.808594 172.894531 105.371094 172.800781 C 102.226562 172.351562 99.078125 172.289062 95.917969 172.609375 L 95.917969 187.832031 Z M 95.835938 187.804688 " fill-opacity="1" fill-rule="nonzero"/><path fill="#ffffff" d="M 136.746094 167.664062 L 141.609375 167.664062 L 141.609375 202.78125 L 136.746094 202.78125 Z M 136.746094 167.664062 " fill-opacity="1" fill-rule="nonzero"/><path fill="#ffffff" d="M 261.007812 191.304688 C 263.578125 186.546875 266.007812 182.121094 268.6875 177.175781 L 276.339844 191.058594 C 271.238281 191.804688 266.128906 191.886719 261.007812 191.304688 Z M 264.753906 187.449219 L 263.277344 190.183594 L 266.226562 190.019531 Z M 264.753906 187.449219 " fill-opacity="1" fill-rule="nonzero"/><path fill="#ffffff" d="M 95.835938 187.804688 L 95.835938 172.582031 C 98.996094 172.261719 102.144531 172.324219 105.289062 172.773438 C 105.726562 172.867188 106.152344 172.996094 106.5625 173.160156 C 106.976562 173.328125 107.371094 173.53125 107.75 173.769531 C 108.125 174.007812 108.476562 174.277344 108.804688 174.578125 C 109.132812 174.878906 109.433594 175.207031 109.703125 175.5625 C 109.96875 175.917969 110.207031 176.292969 110.40625 176.691406 C 110.609375 177.089844 110.773438 177.5 110.902344 177.929688 C 111.027344 178.355469 111.117188 178.789062 111.164062 179.230469 C 111.214844 179.675781 111.222656 180.117188 111.191406 180.5625 C 111.167969 181.03125 111.097656 181.492188 110.988281 181.945312 C 110.878906 182.398438 110.726562 182.839844 110.535156 183.265625 C 110.34375 183.695312 110.117188 184.101562 109.847656 184.484375 C 109.582031 184.871094 109.285156 185.226562 108.953125 185.558594 C 108.621094 185.886719 108.265625 186.183594 107.878906 186.449219 C 107.492188 186.714844 107.085938 186.941406 106.65625 187.128906 C 106.230469 187.320312 105.789062 187.46875 105.335938 187.578125 C 104.878906 187.6875 104.417969 187.753906 103.949219 187.777344 C 101.410156 187.886719 98.839844 187.804688 95.835938 187.804688 Z M 97.335938 186.191406 L 104.46875 186.191406 C 104.527344 185.949219 104.570312 185.703125 104.59375 185.457031 C 104.621094 185.207031 104.628906 184.957031 104.625 184.707031 C 104.617188 184.457031 104.59375 184.210938 104.558594 183.964844 C 104.519531 183.714844 104.464844 183.472656 104.394531 183.234375 C 104.324219 182.992188 104.238281 182.757812 104.140625 182.53125 C 104.039062 182.300781 103.925781 182.078125 103.796875 181.863281 C 103.667969 181.652344 103.527344 181.445312 103.371094 181.25 C 103.21875 181.054688 103.050781 180.867188 102.871094 180.695312 C 102.695312 180.519531 102.503906 180.355469 102.304688 180.207031 C 102.105469 180.054688 101.898438 179.917969 101.679688 179.796875 C 101.460938 179.671875 101.238281 179.5625 101.007812 179.46875 C 100.777344 179.375 100.539062 179.296875 100.296875 179.230469 C 100.058594 179.167969 99.8125 179.117188 99.566406 179.085938 C 99.316406 179.054688 99.066406 179.035156 98.820312 179.035156 C 98.570312 179.035156 98.320312 179.050781 98.070312 179.082031 C 97.824219 179.113281 97.578125 179.160156 97.335938 179.222656 Z M 97.335938 186.191406 " fill-opacity="1" fill-rule="nonzero"/><g clip-path="url(#be13381c5d)"><path fill="#526e05" d="M 71.660156 158.027344 L 318.945312 158.027344 L 318.945312 220.457031 L 71.660156 220.457031 Z M 71.660156 158.027344 " fill-opacity="1" fill-rule="nonzero"/></g><g clip-path="url(#87208aad2a)"><g clip-path="url(#86ae7937a6)"><g clip-path="url(#0630d9dad2)"><path fill="#ffffff" d="M 251.609375 152.859375 L 242.191406 164.03125 L 242.21875 164.050781 L 217.421875 193.464844 L 200.570312 179.253906 L 195.777344 197.175781 L 206.621094 206.316406 L 184.804688 232.1875 C 181.941406 230.589844 181.917969 230.492188 182.667969 227.695312 C 183.855469 223.285156 185.035156 218.871094 191.742188 193.773438 L 191.757812 193.785156 L 196.550781 175.867188 L 196.535156 175.851562 C 197.574219 171.957031 198.699219 167.746094 199.917969 163.191406 L 200.03125 163.285156 C 203.972656 148.640625 207.898438 133.996094 211.886719 119.367188 L 187.964844 99.199219 L 111.308594 190.117188 L 123.765625 200.621094 L 133.539062 189.03125 L 133.488281 188.988281 L 155.335938 163.074219 L 173.621094 178.488281 L 178.410156 160.566406 L 166.175781 150.25 L 190.832031 121.007812 C 192.566406 122.027344 193.238281 122.421875 193.316406 123.25 C 193.167969 123.800781 193.023438 124.34375 192.878906 124.886719 L 191.367188 130.546875 C 191.117188 131.492188 190.863281 132.429688 190.613281 133.359375 L 188.800781 140.144531 C 188.570312 141.027344 188.335938 141.898438 188.101562 142.765625 L 187.714844 144.214844 C 187.203125 146.136719 186.699219 148.011719 186.210938 149.839844 L 184.507812 156.214844 C 184.328125 156.886719 184.152344 157.550781 183.972656 158.210938 L 183.191406 161.128906 C 183.019531 161.769531 182.851562 162.398438 182.679688 163.027344 C 182.601562 163.339844 182.515625 163.652344 182.429688 163.964844 L 177.636719 181.878906 L 177.644531 181.886719 C 175.761719 188.9375 174.160156 194.914062 172.785156 200.042969 L 172.511719 201.058594 C 172.207031 202.207031 171.910156 203.308594 171.625 204.371094 C 171.441406 205.078125 171.253906 205.765625 171.070312 206.4375 L 170.9375 206.9375 C 170.84375 207.273438 170.761719 207.597656 170.671875 207.921875 L 169.976562 210.511719 C 166.695312 222.75 165.164062 228.414062 163.613281 234.082031 C 163.601562 234.121094 163.597656 234.164062 163.585938 234.207031 L 187.023438 253.96875 L 263.6875 163.039062 Z M 251.609375 152.859375 " fill-opacity="1" fill-rule="nonzero"/></g></g></g><g clip-path="url(#9e79313653)"><path fill="#ffffff" d="M 140.800781 89.414062 C 140.039062 90.15625 139.226562 90.851562 138.515625 91.640625 C 136.203125 94.207031 133.933594 96.804688 131.625 99.371094 C 131.285156 99.734375 130.894531 100.03125 130.449219 100.261719 C 129.621094 100.710938 128.769531 100.472656 128.375 99.625 C 128.097656 99.039062 128.003906 98.363281 127.84375 97.722656 C 127.800781 97.550781 127.804688 97.367188 127.773438 97.027344 C 127.570312 97.300781 127.46875 97.445312 127.351562 97.585938 C 126.835938 98.21875 126.328125 98.859375 125.789062 99.476562 C 125.113281 100.246094 124.226562 100.542969 123.222656 100.566406 C 122.847656 100.570312 122.453125 100.539062 122.101562 100.636719 C 121.707031 100.738281 121.351562 100.917969 121.035156 101.171875 C 119.289062 102.683594 117.589844 104.242188 115.84375 105.742188 C 115.335938 106.179688 115.066406 106.613281 115.09375 107.308594 C 115.167969 109.257812 115.191406 111.207031 115.195312 113.15625 C 115.195312 114.011719 115.132812 114.863281 115.074219 115.714844 C 115.050781 116.042969 114.992188 116.359375 114.898438 116.671875 C 114.765625 117.128906 114.503906 117.484375 113.96875 117.480469 C 113.433594 117.476562 113.148438 117.117188 113.054688 116.65625 C 112.925781 116.109375 112.863281 115.550781 112.859375 114.984375 C 112.902344 112.953125 112.988281 110.921875 113.050781 108.890625 C 113.058594 108.675781 113.023438 108.464844 112.996094 108.144531 C 112.742188 108.3125 112.578125 108.417969 112.417969 108.527344 C 111.335938 109.273438 110.265625 110.023438 109.175781 110.761719 C 109 110.875 108.808594 110.949219 108.605469 110.988281 C 108.1875 111.074219 107.777344 111.054688 107.476562 110.699219 C 107.328125 110.539062 107.25 110.351562 107.238281 110.136719 C 107.226562 109.921875 107.285156 109.726562 107.410156 109.550781 C 108.015625 108.664062 108.59375 107.738281 109.320312 106.960938 C 110.417969 105.789062 111.648438 104.742188 112.789062 103.617188 C 113.011719 103.398438 113.222656 103.050781 113.242188 102.753906 C 113.441406 99.816406 113.457031 96.878906 113.132812 93.945312 C 113.035156 93.078125 112.976562 92.222656 113.289062 91.363281 C 113.40625 91.03125 113.34375 90.617188 113.300781 90.25 C 113.105469 88.441406 113.519531 87.714844 115.207031 87.046875 C 117.175781 86.269531 119.214844 85.734375 121.328125 85.621094 C 125.378906 85.410156 127.941406 89.015625 126.894531 92.542969 C 126.320312 94.464844 125.191406 96.074219 124.027344 97.664062 C 123.761719 98.027344 123.488281 98.386719 123.152344 98.832031 C 123.796875 98.953125 124.226562 98.753906 124.5625 98.421875 C 124.980469 98.015625 125.355469 97.574219 125.691406 97.097656 C 126.289062 96.246094 126.839844 95.355469 127.414062 94.488281 C 127.554688 94.273438 127.695312 94.058594 127.855469 93.859375 C 128.164062 93.476562 128.558594 93.292969 129.035156 93.449219 C 129.511719 93.601562 129.683594 93.996094 129.667969 94.457031 C 129.640625 95.140625 129.558594 95.820312 129.523438 96.503906 C 129.484375 97.011719 129.484375 97.523438 129.519531 98.035156 C 129.582031 98.679688 129.875 98.804688 130.339844 98.363281 C 131.078125 97.652344 131.777344 96.902344 132.460938 96.140625 C 134.5 93.863281 136.5 91.546875 138.570312 89.296875 C 139.140625 88.683594 139.894531 88.230469 140.585938 87.726562 C 140.800781 87.585938 141.035156 87.480469 141.285156 87.421875 C 142.289062 87.136719 143.152344 87.859375 142.972656 88.890625 C 142.890625 89.421875 142.703125 89.910156 142.410156 90.359375 C 141.660156 91.457031 140.824219 92.492188 140.019531 93.550781 C 139.902344 93.707031 139.777344 93.855469 139.574219 94.105469 C 141.503906 94.347656 142.839844 95.304688 143.675781 97.070312 C 144.214844 96.488281 144.667969 95.992188 145.125 95.496094 C 147.164062 93.261719 149.175781 91.003906 151.257812 88.8125 C 152.195312 87.824219 153.246094 86.925781 154.539062 86.402344 C 154.949219 86.230469 155.375 86.117188 155.816406 86.054688 C 156.636719 85.953125 157.21875 86.507812 157.273438 87.332031 C 157.335938 88.25 156.90625 88.996094 156.453125 89.714844 C 156.042969 90.359375 155.53125 90.945312 155.058594 91.546875 C 154.863281 91.800781 154.648438 92.042969 154.367188 92.382812 C 154.675781 92.421875 154.863281 92.457031 155.054688 92.464844 C 156.28125 92.5 157.40625 92.75 158.125 93.878906 C 158.269531 94.105469 158.449219 94.109375 158.640625 93.925781 C 159.769531 92.816406 160.953125 91.753906 162.011719 90.578125 C 163.496094 88.933594 165.25 87.703125 167.242188 86.773438 C 168.0625 86.390625 168.855469 85.953125 169.683594 85.582031 C 170.117188 85.394531 170.570312 85.265625 171.042969 85.195312 C 171.402344 85.132812 171.792969 85.296875 171.835938 85.675781 C 171.871094 86.03125 171.78125 86.347656 171.566406 86.632812 C 171.339844 86.898438 170.957031 87.078125 170.609375 87.195312 C 167.839844 88.117188 165.613281 89.914062 163.375 91.6875 C 163.191406 91.835938 163.132812 92.140625 163.015625 92.371094 C 163.273438 92.457031 163.542969 92.640625 163.792969 92.613281 C 165.261719 92.464844 166.574219 91.8125 167.914062 91.25 C 169.046875 90.773438 170.191406 90.316406 171.328125 89.847656 C 173.347656 89.015625 175.101562 89.457031 176.644531 90.945312 C 177.015625 91.300781 177.40625 91.632812 177.796875 91.964844 C 179.589844 93.480469 181.59375 93.738281 183.746094 92.90625 C 184.320312 92.683594 184.851562 92.363281 185.414062 92.117188 C 185.925781 91.878906 186.449219 91.675781 186.984375 91.5 C 187.371094 91.378906 187.496094 91.546875 187.335938 91.933594 C 187.054688 92.652344 186.648438 93.289062 185.964844 93.679688 C 184.226562 94.65625 182.382812 95.203125 180.363281 94.929688 C 178.980469 94.742188 177.816406 94.082031 176.757812 93.207031 C 176.140625 92.695312 175.535156 92.164062 174.910156 91.660156 C 174.230469 91.113281 173.445312 90.859375 172.605469 91.164062 C 171.082031 91.714844 169.582031 92.332031 168.066406 92.917969 C 167.160156 93.269531 166.269531 93.703125 165.332031 93.9375 C 164.535156 94.144531 163.683594 94.164062 162.855469 94.160156 C 162.496094 94.160156 162.105469 93.925781 161.792969 93.710938 C 161.5 93.503906 161.28125 93.472656 161.027344 93.710938 C 160.429688 94.269531 159.8125 94.8125 159.242188 95.398438 C 159.0625 95.589844 158.976562 95.816406 158.984375 96.078125 C 159.246094 98.734375 158.453125 101.105469 157.101562 103.34375 C 155.894531 105.335938 154.375 107.035156 152.347656 108.203125 C 151.757812 108.523438 151.128906 108.699219 150.460938 108.730469 C 149.570312 108.785156 149.015625 108.140625 148.976562 107.246094 C 148.933594 106.265625 149.285156 105.398438 149.75 104.570312 C 150.929688 102.457031 152.402344 100.546875 154.023438 98.753906 C 154.914062 97.765625 155.824219 96.792969 156.746094 95.828125 C 157.035156 95.519531 157.03125 95.246094 156.828125 94.90625 C 156.503906 94.367188 156.015625 94.148438 155.414062 94.109375 C 154.222656 94.035156 153.0625 94.203125 151.9375 94.613281 C 151.679688 94.707031 151.433594 94.820312 151.171875 94.90625 C 150.769531 95.035156 150.410156 94.945312 150.191406 94.570312 C 149.96875 94.199219 150.074219 93.855469 150.367188 93.597656 C 150.847656 93.1875 151.394531 92.851562 151.863281 92.4375 C 153.1875 91.269531 154.445312 90.039062 155.296875 88.460938 C 155.390625 88.285156 155.464844 88.101562 155.546875 87.921875 L 155.457031 87.800781 C 155.1875 87.921875 154.902344 88.007812 154.65625 88.160156 C 153.105469 89.136719 151.792969 90.390625 150.558594 91.710938 C 149.152344 93.226562 147.789062 94.777344 146.398438 96.308594 C 145.6875 97.097656 144.960938 97.871094 144.269531 98.667969 C 144.09375 98.863281 143.992188 99.089844 143.96875 99.351562 C 143.917969 101.710938 142.941406 103.726562 141.632812 105.597656 C 140.308594 107.488281 138.730469 109.140625 136.789062 110.421875 C 136.175781 110.832031 135.519531 111.167969 134.738281 111.128906 C 133.851562 111.085938 133.289062 110.554688 133.398438 109.679688 C 133.46875 109.109375 133.644531 108.476562 133.976562 108.019531 C 134.902344 106.75 135.890625 105.53125 136.9375 104.359375 C 138.558594 102.554688 140.25 100.8125 141.917969 99.050781 C 142.230469 98.746094 142.320312 98.386719 142.1875 97.972656 C 141.847656 96.648438 140.878906 95.859375 139.386719 95.765625 C 138.910156 95.738281 138.433594 95.8125 137.953125 95.832031 C 137.476562 95.851562 136.992188 95.839844 136.757812 95.339844 C 136.515625 94.828125 136.796875 94.4375 137.148438 94.066406 C 138.21875 92.9375 139.285156 91.816406 140.324219 90.664062 C 140.601562 90.355469 140.78125 89.957031 141.003906 89.601562 Z M 115.0625 101.660156 C 115.148438 101.660156 115.230469 101.652344 115.3125 101.636719 C 115.410156 101.601562 115.5 101.554688 115.585938 101.5 C 117.101562 100.515625 118.722656 99.769531 120.460938 99.265625 C 120.757812 99.167969 121.003906 98.996094 121.199219 98.753906 C 122.027344 97.710938 122.855469 96.664062 123.621094 95.574219 C 124.46875 94.367188 125.160156 93.074219 125.476562 91.605469 C 125.640625 90.84375 125.546875 90.113281 125.183594 89.417969 C 124.410156 87.859375 123.003906 87.070312 121.183594 87.242188 C 119.25 87.429688 117.394531 87.953125 115.582031 88.644531 C 115.105469 88.828125 114.878906 89.148438 114.902344 89.664062 C 114.945312 90.53125 114.996094 91.40625 115.003906 92.273438 C 115.019531 95.160156 115.003906 98.046875 115.011719 100.933594 C 115.007812 101.160156 115.042969 101.394531 115.0625 101.660156 Z M 157.386719 97.605469 L 157.226562 97.542969 C 157.105469 97.628906 156.992188 97.722656 156.886719 97.828125 C 155.425781 99.566406 153.910156 101.257812 152.535156 103.0625 C 151.820312 104.015625 151.332031 105.152344 150.777344 106.226562 C 150.675781 106.433594 150.753906 106.738281 150.746094 107 C 151.003906 106.945312 151.320312 106.964844 151.503906 106.820312 C 152.429688 106.101562 153.414062 105.421875 154.210938 104.574219 C 155.808594 102.894531 156.835938 100.921875 157.296875 98.652344 C 157.363281 98.3125 157.359375 97.953125 157.386719 97.605469 Z M 141.984375 101.28125 L 141.808594 101.132812 C 141.707031 101.3125 141.597656 101.484375 141.46875 101.648438 C 140.40625 102.824219 139.316406 103.976562 138.265625 105.171875 C 137.378906 106.183594 136.535156 107.234375 135.691406 108.289062 C 135.460938 108.578125 135.320312 108.9375 135.082031 109.355469 C 137.289062 108.878906 141.710938 103.816406 141.984375 101.28125 Z M 115.105469 104.117188 L 115.304688 104.257812 L 117.617188 102.289062 L 117.507812 102.144531 C 116.78125 102.628906 116.046875 103.109375 115.335938 103.625 C 115.207031 103.710938 115.179688 103.949219 115.105469 104.117188 Z M 111.324219 107.394531 C 112.398438 106.804688 113.171875 106.039062 113.054688 105.625 Z M 111.324219 107.394531 " fill-opacity="1" fill-rule="nonzero"/></g><path fill="#ffffff" d="M 130.527344 88.390625 C 129.53125 87.9375 128.046875 88.492188 128.011719 89.714844 C 127.976562 90.765625 128.894531 91.960938 130.007812 91.863281 C 130.351562 91.832031 130.632812 91.6875 130.859375 91.429688 C 131.023438 91.316406 131.160156 91.179688 131.269531 91.019531 C 131.882812 90.128906 131.5 88.828125 130.527344 88.390625 Z M 130.527344 88.390625 " fill-opacity="1" fill-rule="nonzero"/><path fill="#fcee21" d="M 180.082031 84.054688 C 179.929688 84.097656 179.804688 84.183594 179.707031 84.308594 C 179.601562 84.449219 179.507812 84.589844 179.40625 84.730469 C 179.222656 84.984375 179.003906 85.207031 178.757812 85.398438 C 178.335938 85.726562 177.695312 85.945312 177.148438 85.785156 C 176.597656 85.625 176.222656 85.203125 175.894531 84.789062 C 175.507812 84.296875 175.136719 83.804688 174.71875 83.339844 C 173.894531 82.421875 172.933594 81.570312 171.730469 81.210938 C 170.707031 80.902344 169.625 81.074219 168.652344 81.5 C 167.527344 81.996094 166.710938 82.804688 166.203125 83.925781 C 166.191406 83.957031 166.226562 84.023438 166.25 83.976562 C 166.714844 83.027344 167.566406 82.324219 168.539062 81.941406 C 169.539062 81.558594 170.546875 81.53125 171.566406 81.851562 C 172.71875 82.214844 173.667969 83.054688 174.417969 83.980469 C 174.804688 84.460938 175.144531 84.976562 175.519531 85.46875 C 175.894531 85.960938 176.324219 86.429688 176.902344 86.664062 C 177.617188 86.960938 178.398438 86.769531 179.019531 86.335938 C 179.328125 86.109375 179.59375 85.84375 179.820312 85.539062 C 179.933594 85.386719 180.039062 85.226562 180.128906 85.058594 C 180.203125 84.945312 180.25 84.820312 180.273438 84.683594 C 180.289062 84.582031 180.296875 84.480469 180.304688 84.378906 C 180.3125 84.273438 180.265625 83.976562 180.082031 84.054688 Z M 180.082031 84.054688 " fill-opacity="1" fill-rule="nonzero"/><path fill="#fcee21" d="M 186.546875 95.738281 C 186.441406 95.78125 186.324219 95.808594 186.222656 95.863281 C 186.101562 95.921875 185.980469 95.984375 185.863281 96.046875 C 185.640625 96.171875 185.414062 96.296875 185.1875 96.421875 C 184.738281 96.667969 184.273438 96.886719 183.792969 97.070312 C 182.886719 97.421875 181.949219 97.550781 180.984375 97.457031 C 180.078125 97.355469 179.234375 97.074219 178.449219 96.613281 C 177.671875 96.148438 177.011719 95.558594 176.46875 94.835938 C 175.917969 94.128906 175.355469 93.3125 174.4375 93.074219 C 174.414062 93.074219 174.410156 93.117188 174.429688 93.121094 C 175.285156 93.386719 175.8125 94.164062 176.316406 94.851562 C 176.851562 95.585938 177.457031 96.242188 178.21875 96.75 C 178.976562 97.261719 179.804688 97.601562 180.703125 97.769531 C 181.65625 97.9375 182.589844 97.867188 183.507812 97.5625 C 184.0625 97.378906 184.597656 97.144531 185.109375 96.867188 C 185.367188 96.730469 185.617188 96.585938 185.863281 96.433594 C 185.992188 96.355469 186.113281 96.273438 186.234375 96.1875 C 186.363281 96.09375 186.484375 95.996094 186.597656 95.886719 C 186.636719 95.855469 186.621094 95.710938 186.546875 95.738281 Z M 186.546875 95.738281 " fill-opacity="1" fill-rule="nonzero"/><path fill="#fcee21" d="M 119.152344 83.800781 C 118.097656 83.441406 117.003906 83.671875 115.953125 83.917969 C 115.066406 84.113281 114.214844 84.414062 113.398438 84.816406 C 112.613281 85.226562 111.902344 85.769531 111.394531 86.5 C 110.804688 87.355469 110.574219 88.417969 110.574219 89.441406 C 110.582031 90.738281 110.957031 91.972656 111.292969 93.214844 C 111.304688 93.25 111.339844 93.226562 111.332031 93.195312 C 111.0625 92.113281 110.808594 90.992188 110.808594 89.871094 C 110.808594 88.914062 111 87.921875 111.527344 87.101562 C 112.460938 85.648438 114.175781 85.050781 115.757812 84.589844 C 116.269531 84.445312 116.78125 84.296875 117.296875 84.15625 C 117.890625 83.992188 118.519531 83.859375 119.132812 83.953125 C 119.207031 83.964844 119.203125 83.824219 119.152344 83.800781 Z M 119.152344 83.800781 " fill-opacity="1" fill-rule="nonzero"/><path fill="#fcee21" d="M 160.632812 98.78125 C 160.621094 98.664062 160.59375 98.550781 160.570312 98.433594 C 160.550781 98.3125 160.519531 98.195312 160.480469 98.078125 C 160.394531 97.886719 160.339844 97.679688 160.257812 97.484375 C 160.230469 97.414062 160.179688 97.484375 160.1875 97.53125 C 160.257812 97.976562 160.238281 98.414062 160.238281 98.859375 C 160.234375 99.277344 160.199219 99.691406 160.121094 100.105469 C 159.976562 100.925781 159.667969 101.761719 159.316406 102.554688 C 159.148438 102.933594 158.96875 103.273438 158.75 103.679688 C 158.53125 104.085938 158.292969 104.46875 158.046875 104.851562 C 157.546875 105.625 157.007812 106.367188 156.421875 107.078125 C 155.855469 107.769531 155.242188 108.421875 154.582031 109.027344 C 153.941406 109.605469 153.273438 110.085938 152.472656 110.417969 C 151.722656 110.734375 150.941406 110.84375 150.136719 110.738281 C 149.960938 110.710938 149.789062 110.675781 149.621094 110.621094 C 149.429688 110.5625 149.246094 110.488281 149.070312 110.398438 C 148.914062 110.324219 148.769531 110.230469 148.636719 110.121094 C 148.574219 110.070312 148.511719 110.019531 148.449219 109.960938 C 148.421875 109.933594 148.394531 109.90625 148.367188 109.878906 L 148.335938 109.84375 C 148.335938 109.84375 148.300781 109.808594 148.292969 109.800781 C 148.285156 109.789062 148.257812 109.753906 148.253906 109.75 C 148.222656 109.714844 148.199219 109.679688 148.171875 109.648438 C 148.121094 109.582031 148.078125 109.511719 148.035156 109.441406 C 148.011719 109.410156 147.992188 109.375 147.976562 109.339844 L 147.957031 109.308594 C 147.921875 109.230469 147.882812 109.152344 147.847656 109.070312 C 147.8125 108.988281 147.789062 108.929688 147.765625 108.855469 L 147.746094 108.792969 C 147.726562 108.742188 147.757812 108.835938 147.757812 108.835938 C 147.738281 108.789062 147.726562 108.738281 147.71875 108.691406 C 147.699219 108.617188 147.683594 108.539062 147.667969 108.464844 C 147.660156 108.425781 147.65625 108.386719 147.648438 108.347656 C 147.648438 108.332031 147.644531 108.316406 147.644531 108.296875 C 147.636719 108.140625 147.621094 107.984375 147.628906 107.824219 C 147.628906 107.8125 147.628906 107.789062 147.628906 107.769531 C 147.628906 107.753906 147.632812 107.710938 147.640625 107.679688 C 147.648438 107.597656 147.660156 107.515625 147.675781 107.4375 C 147.679688 107.390625 147.6875 107.347656 147.707031 107.308594 C 147.707031 107.308594 147.679688 107.402344 147.695312 107.351562 C 147.703125 107.328125 147.707031 107.308594 147.710938 107.285156 C 147.734375 107.207031 147.761719 107.128906 147.789062 107.054688 C 147.804688 107.011719 147.820312 106.972656 147.839844 106.929688 C 147.839844 106.921875 147.867188 106.867188 147.875 106.851562 C 147.878906 106.835938 147.898438 106.808594 147.902344 106.796875 C 147.921875 106.761719 147.945312 106.722656 147.96875 106.683594 C 148.070312 106.539062 148.125 106.375 148.128906 106.195312 C 148.128906 106.160156 148.121094 106.125 148.117188 106.09375 C 148.113281 106.058594 148.113281 106.03125 148.109375 106 C 148.113281 105.898438 148.074219 105.816406 147.984375 105.765625 C 147.925781 105.730469 147.863281 105.710938 147.796875 105.707031 C 147.632812 105.707031 147.550781 105.847656 147.472656 105.976562 C 147.371094 106.148438 147.28125 106.332031 147.210938 106.523438 C 147.074219 106.871094 146.996094 107.234375 146.96875 107.605469 C 146.898438 108.453125 147.066406 109.253906 147.472656 110 C 147.867188 110.714844 148.441406 111.222656 149.199219 111.523438 C 150.03125 111.835938 150.882812 111.886719 151.746094 111.6875 C 153.59375 111.277344 155.019531 109.941406 156.238281 108.570312 C 157.542969 107.113281 158.726562 105.484375 159.578125 103.726562 C 159.800781 103.28125 159.992188 102.824219 160.160156 102.351562 C 160.316406 101.882812 160.441406 101.40625 160.527344 100.917969 C 160.613281 100.433594 160.660156 99.949219 160.667969 99.460938 C 160.667969 99.234375 160.65625 99.007812 160.632812 98.78125 Z M 160.632812 98.78125 " fill-opacity="1" fill-rule="nonzero"/><path fill="#fcee21" d="M 145.179688 102.652344 C 145.042969 102.839844 144.914062 103.023438 144.800781 103.222656 C 144.6875 103.421875 144.539062 103.617188 144.429688 103.828125 C 144.210938 104.257812 143.980469 104.683594 143.753906 105.109375 C 143.273438 105.992188 142.75 106.84375 142.175781 107.667969 C 141.90625 108.0625 141.621094 108.445312 141.324219 108.820312 L 141.234375 108.9375 L 141.160156 109.023438 C 141.089844 109.113281 141.015625 109.199219 140.941406 109.289062 C 140.800781 109.453125 140.65625 109.613281 140.507812 109.773438 C 139.90625 110.433594 139.25 111.03125 138.539062 111.566406 C 137.222656 112.550781 135.605469 113.269531 133.929688 113.316406 C 133.050781 113.339844 132.117188 113.214844 131.464844 112.609375 C 131.4375 112.582031 131.40625 112.554688 131.378906 112.523438 C 131.367188 112.511719 131.3125 112.453125 131.308594 112.453125 C 131.25 112.382812 131.195312 112.308594 131.140625 112.234375 C 131.089844 112.160156 131.039062 112.078125 130.996094 112 L 130.964844 111.933594 C 130.941406 111.886719 130.917969 111.835938 130.898438 111.785156 C 130.859375 111.699219 130.828125 111.605469 130.792969 111.515625 C 130.792969 111.507812 130.789062 111.503906 130.789062 111.496094 L 130.789062 111.480469 C 130.773438 111.425781 130.757812 111.378906 130.746094 111.320312 C 130.726562 111.226562 130.707031 111.128906 130.691406 111.03125 C 130.691406 111.007812 130.6875 110.984375 130.683594 110.960938 C 130.679688 110.953125 130.679688 110.941406 130.675781 110.933594 C 130.675781 110.894531 130.675781 110.855469 130.675781 110.820312 C 130.671875 110.722656 130.667969 110.625 130.667969 110.527344 C 130.667969 110.488281 130.667969 110.445312 130.667969 110.40625 C 130.667969 110.367188 130.667969 110.34375 130.675781 110.316406 C 130.6875 110.222656 130.699219 110.132812 130.714844 110.042969 C 130.722656 109.988281 130.734375 109.933594 130.742188 109.882812 L 130.761719 109.796875 C 130.761719 109.78125 130.769531 109.769531 130.773438 109.757812 C 130.832031 109.527344 130.910156 109.304688 131 109.085938 C 131.039062 108.980469 131.082031 108.886719 131.125 108.792969 L 131.136719 108.769531 C 131.152344 108.742188 131.164062 108.714844 131.175781 108.691406 C 131.210938 108.625 131.246094 108.558594 131.28125 108.496094 C 131.507812 108.082031 131.765625 107.683594 132.050781 107.304688 C 132.121094 107.210938 132.191406 107.113281 132.261719 107.019531 L 132.371094 106.878906 C 132.386719 106.863281 132.398438 106.84375 132.414062 106.828125 L 132.445312 106.789062 C 132.476562 106.75 132.511719 106.710938 132.546875 106.675781 C 132.566406 106.65625 132.585938 106.640625 132.605469 106.625 L 132.617188 106.613281 C 132.652344 106.59375 132.683594 106.574219 132.722656 106.5625 L 132.75 106.558594 C 132.753906 106.589844 132.757812 106.621094 132.761719 106.652344 C 132.785156 106.761719 132.902344 106.972656 133.050781 106.890625 C 133.011719 106.914062 133.089844 106.875 133.097656 106.875 C 133.128906 106.859375 133.15625 106.839844 133.179688 106.816406 C 133.222656 106.777344 133.257812 106.730469 133.285156 106.675781 C 133.34375 106.550781 133.367188 106.414062 133.351562 106.273438 C 133.328125 106.003906 133.207031 105.652344 132.921875 105.558594 C 132.378906 105.382812 131.96875 106.039062 131.703125 106.394531 C 131.066406 107.234375 130.484375 108.15625 130.195312 109.179688 C 129.902344 110.175781 129.925781 111.164062 130.265625 112.144531 C 130.59375 113.054688 131.277344 113.792969 132.203125 114.109375 C 133.128906 114.421875 134.179688 114.390625 135.125 114.199219 C 136.046875 114.011719 136.910156 113.683594 137.722656 113.214844 C 139.414062 112.242188 140.816406 110.84375 141.992188 109.304688 C 142.640625 108.457031 143.230469 107.574219 143.761719 106.648438 C 144.046875 106.15625 144.320312 105.65625 144.558594 105.144531 C 144.671875 104.898438 144.78125 104.648438 144.886719 104.402344 C 144.984375 104.140625 145.066406 103.871094 145.136719 103.601562 C 145.21875 103.332031 145.28125 103.054688 145.324219 102.777344 C 145.339844 102.691406 145.257812 102.539062 145.179688 102.652344 Z M 145.179688 102.652344 " fill-opacity="1" fill-rule="nonzero"/><path fill="#fcee21" d="M 144.515625 86.671875 C 143.972656 86.007812 143.09375 85.5625 142.257812 85.417969 C 141.742188 85.335938 141.265625 85.4375 140.828125 85.71875 C 140.796875 85.738281 140.804688 85.832031 140.847656 85.8125 C 141.023438 85.710938 141.214844 85.660156 141.417969 85.65625 C 141.609375 85.664062 141.804688 85.6875 141.996094 85.71875 C 142.394531 85.796875 142.773438 85.929688 143.128906 86.125 C 143.761719 86.453125 144.425781 86.957031 144.601562 87.683594 C 144.710938 88.085938 144.675781 88.476562 144.5 88.851562 C 144.480469 88.894531 144.492188 89.035156 144.566406 88.976562 C 144.871094 88.734375 145.007812 88.285156 144.996094 87.910156 C 144.976562 87.441406 144.816406 87.03125 144.515625 86.671875 Z M 144.515625 86.671875 " fill-opacity="1" fill-rule="nonzero"/><path fill="#fcee21" d="M 158.8125 86.507812 C 158.386719 85.894531 157.855469 85.390625 157.222656 84.992188 C 156.875 84.777344 156.507812 84.601562 156.121094 84.460938 C 156.105469 84.460938 156.101562 84.492188 156.117188 84.496094 C 157.460938 85.027344 158.578125 86.128906 159.191406 87.433594 C 159.351562 87.796875 159.488281 88.171875 159.605469 88.550781 C 159.621094 88.605469 159.664062 88.550781 159.65625 88.515625 C 159.574219 87.800781 159.226562 87.089844 158.8125 86.507812 Z M 158.8125 86.507812 " fill-opacity="1" fill-rule="nonzero"/></svg>